<?xml version="1.0" encoding="UTF-8" standalone="no"?>
<svg width="24px" height="21px" viewBox="0 0 24 21" version="1.1" xmlns="http://www.w3.org/2000/svg" xmlns:xlink="http://www.w3.org/1999/xlink" xmlns:sketch="http://www.bohemiancoding.com/sketch/ns">
    <!-- Generator: Sketch 3.3.2 (12043) - http://www.bohemiancoding.com/sketch -->
    <title>Rectangle 14 + Imported Layers</title>
    <desc>Created with Sketch.</desc>
    <defs></defs>
    <g id="Welcome" stroke="none" stroke-width="1" fill="none" fill-rule="evenodd" sketch:type="MSPage">
        <g id="Desktop-Copy" sketch:type="MSArtboardGroup" transform="translate(-729.000000, -23.000000)">
            <g id="612.222.2324-+-Rectangle-14-+-Imported-Layers" sketch:type="MSLayerGroup" transform="translate(729.000000, 19.000000)">
                <g id="Rectangle-14-+-Imported-Layers" transform="translate(0.500000, 4.000000)" sketch:type="MSShapeGroup">
                    <rect id="Rectangle-14" fill="#D8D8D8" x="0" y="0" width="23" height="21" rx="3"></rect>
                    <g id="Imported-Layers" transform="translate(5.750000, 4.666667)">
                        <path d="M9.19386667,11.1832292 C8.69323333,11.2809375 5.3613,11.1504167 2.64653333,8.23666667 C-0.233066667,5.14791667 0.0644,1.66395833 0.1771,1.44885417 C0.399433333,1.02739583 0.875533333,0.5775 1.48196667,0.215104167 C1.56783333,0.1640625 1.6606,0.1290625 1.75566667,0.110104167 C2.15356667,0.0328125 2.52693333,0.261770833 2.7738,0.4134375 L2.90106667,0.489270833 C3.23763333,0.674479167 3.65546667,2.7628125 3.6386,3.01947917 C3.61866667,3.31916667 3.2752,3.61375 2.44796667,4.31229167 C2.68716667,5.088125 3.41933333,6.15416667 4.00353333,6.7790625 C4.5402,7.35583333 5.69863333,8.34458333 6.5228,8.68364583 C7.2358,8.08354167 7.59843333,7.7809375 7.889,7.72479167 C7.93193333,7.71677083 7.9741,7.71385417 8.01473333,7.71604167 C8.2846,7.730625 10.4151667,8.3759375 10.5669667,8.71572917 L10.6306,8.84552083 C10.7862333,9.1503125 11.0469,9.65927083 10.6827333,10.0880208 C10.2319333,10.6173958 9.70523333,11.0126042 9.23833333,11.1715625 L9.19386667,11.1832292" id="Fill-1" fill="#A2A2A2"></path>
                        <path d="M1.77483333,0.202708333 C2.20646667,0.118854167 2.622,0.444791667 2.85123333,0.5709375 C3.12263333,0.720416667 3.55656667,2.74822917 3.5397,3.01364583 C3.52206667,3.28052083 3.151,3.59260417 2.33526667,4.2809375 C2.56526667,5.09395833 3.33653333,6.20739583 3.92916667,6.84177083 C4.52026667,7.47614583 5.7201,8.47947917 6.54196667,8.79375 C7.26493333,8.18489583 7.6383,7.86989583 7.90893333,7.81739583 C7.94343333,7.81010417 7.9764,7.80864583 8.0086,7.81010417 C8.28843333,7.82541667 10.3530667,8.47802083 10.4757333,8.7521875 C10.5984,9.02635417 10.9848,9.58270833 10.6053,10.0282292 C10.2258,10.47375 9.70753333,10.91125 9.20536667,11.0833333 C9.19693333,11.0855208 9.1862,11.0884375 9.17393333,11.090625 C8.72083333,11.1788542 5.405,11.0548958 2.7209,8.17395833 C-0.0398666667,5.21208333 0.1265,1.75802083 0.266033333,1.49114583 C0.505233333,1.03760417 1.02426667,0.600104167 1.53486667,0.2953125 C1.6146,0.247916667 1.6951,0.218020833 1.77483333,0.202708333 M1.73573333,0.0175 L1.73573333,0.0175 C1.62916667,0.0386458333 1.52643333,0.0780208333 1.42983333,0.134895833 C1.13543333,0.311354167 0.4163,0.786041667 0.0889333333,1.4065625 C-0.113466667,1.79302083 -0.205466667,5.31927083 2.57293333,8.299375 C5.31836667,11.2466667 8.70473333,11.375 9.2138,11.2758333 L9.2276,11.2729167 L9.27206667,11.2605208 C9.95823333,11.0264583 10.5409,10.4044792 10.7601667,10.1470833 C11.1634333,9.67239583 10.8751667,9.10802083 10.7195333,8.8046875 C10.6957667,8.75802083 10.6743,8.71572917 10.6582,8.67854167 C10.4734333,8.26510417 8.20793333,7.6321875 8.0201,7.62125 C7.9718,7.6190625 7.92043333,7.62270833 7.86906667,7.6321875 C7.55933333,7.69270833 7.2197,7.97125 6.50516667,8.5728125 C5.6994,8.21916667 4.59693333,7.27416667 4.07713333,6.71635417 C3.51516667,6.1140625 2.81366667,5.09979167 2.56143333,4.3421875 C3.37563333,3.6553125 3.71603333,3.35708333 3.7375,3.0253125 C3.749,2.84666667 3.35953333,0.6321875 2.9509,0.407604167 C2.9141,0.387916667 2.87346667,0.362395833 2.82746667,0.333958333 C2.56756667,0.174270833 2.17273333,-0.0670833333 1.73573333,0.0175" id="Fill-2" fill="#5C5C5C"></path>
                    </g>
                </g>
            </g>
        </g>
    </g>
</svg>