<?xml version="1.0" encoding="UTF-8" standalone="no"?>
<svg width="180px" height="36px" viewBox="0 0 180 36" version="1.1" xmlns="http://www.w3.org/2000/svg" xmlns:xlink="http://www.w3.org/1999/xlink" xmlns:sketch="http://www.bohemiancoding.com/sketch/ns">
    <!-- Generator: Sketch 3.3.2 (12043) - http://www.bohemiancoding.com/sketch -->
    <title>Imported Layers + consultancy</title>
    <desc>Created with Sketch.</desc>
    <defs></defs>
    <g id="Welcome" stroke="none" stroke-width="1" fill="none" fill-rule="evenodd" sketch:type="MSPage">
        <g id="Desktop-Copy" sketch:type="MSArtboardGroup" transform="translate(-50.000000, -16.000000)">
            <g id="Imported-Layers-+-consultancy" sketch:type="MSLayerGroup" transform="translate(50.000000, 16.000000)">
                <g id="Imported-Layers" fill="#252E4A" sketch:type="MSShapeGroup">
                    <path d="M14.9556809,30.1272381 L7.89487234,30.1272381 L0.0776595745,10.6392381 L7.29689362,10.6392381 L11.4858511,23.2792381 L11.6054468,23.2792381 L15.7928511,10.6392381 L22.7728936,10.6392381 L14.9556809,30.1272381" id="Fill-1"></path>
                    <path d="M32.3871489,4.41752381 C32.3871489,4.9127619 32.2861915,5.376 32.087383,5.80571429 C31.8870213,6.23695238 31.6214255,6.6087619 31.2890426,6.92114286 C30.9566596,7.23352381 30.5574894,7.48342857 30.0930851,7.6647619 C29.6271277,7.84761905 29.1425319,7.93904762 28.6361915,7.93904762 C27.5738085,7.93904762 26.6822766,7.59314286 25.9647021,6.90133333 C25.2471277,6.21104762 24.8867872,5.38209524 24.8867872,4.41752381 C24.8867872,3.94666667 24.9799787,3.49714286 25.1663617,3.06742857 C25.3527447,2.63619048 25.6183404,2.26438095 25.9647021,1.952 C26.3110638,1.63809524 26.7086809,1.38361905 27.1606596,1.18857143 C27.6126383,0.992 28.105,0.89447619 28.6361915,0.89447619 C29.1425319,0.89447619 29.6271277,0.985904762 30.0930851,1.1687619 C30.5574894,1.35161905 30.9566596,1.6 31.2890426,1.91238095 C31.6214255,2.2247619 31.8870213,2.59657143 32.087383,3.02780952 C32.2861915,3.45752381 32.3871489,3.92228571 32.3871489,4.41752381 L32.3871489,4.41752381 Z M25.3667234,10.6392381 L31.908766,10.6392381 L31.908766,30.1272381 L25.3667234,30.1272381 L25.3667234,10.6392381 Z" id="Fill-2"></path>
                    <path d="M44.1914043,15.4133333 L44.1914043,22.8784762 C44.1914043,23.7942857 44.3700213,24.4815238 44.7303617,24.9401905 C45.0891489,25.3988571 45.7337234,25.6274286 46.6656383,25.6274286 C46.9840426,25.6274286 47.3226383,25.6015238 47.6814255,25.5481905 C48.041766,25.496381 48.3399787,25.4186667 48.5791702,25.3150476 L48.658383,30.0099048 C48.2064043,30.1668571 47.6348298,30.304 46.9452128,30.4213333 C46.2524894,30.5386667 45.5613191,30.5965714 44.8701489,30.5965714 C43.5390638,30.5965714 42.4238723,30.4335238 41.5183617,30.1074286 C40.6144043,29.7798095 39.890617,29.3089524 39.3454468,28.6948571 C38.7987234,28.0807619 38.4073191,27.3478095 38.1681277,26.4975238 C37.9289362,25.6472381 37.8093404,24.6994286 37.8093404,23.6525714 L37.8093404,15.4133333 L34.6190851,15.4133333 L34.6190851,10.6392381 L37.7689574,10.6392381 L37.7689574,5.51161905 L44.1914043,5.51161905 L44.1914043,10.6392381 L48.8587447,10.6392381 L48.8587447,15.4133333 L44.1914043,15.4133333" id="Fill-3"></path>
                    <path d="M58.0738298,15.4133333 L58.0738298,22.8784762 C58.0738298,23.7942857 58.2524468,24.4815238 58.611234,24.9401905 C58.9715745,25.3988571 59.6161489,25.6274286 60.5465106,25.6274286 C60.8664681,25.6274286 61.2035106,25.6015238 61.5638511,25.5481905 C61.9226383,25.496381 62.2208511,25.4186667 62.4615957,25.3150476 L62.5408085,30.0099048 C62.0888298,30.1668571 61.5157021,30.304 60.8260851,30.4213333 C60.1349149,30.5386667 59.4437447,30.5965714 58.7510213,30.5965714 C57.4214894,30.5965714 56.3047447,30.4335238 55.4007872,30.1074286 C54.4968298,29.7798095 53.7714894,29.3089524 53.2263191,28.6948571 C52.6811489,28.0807619 52.2897447,27.3478095 52.0505532,26.4975238 C51.8098085,25.6472381 51.6902128,24.6994286 51.6902128,23.6525714 L51.6902128,15.4133333 L48.5015106,15.4133333 L48.5015106,10.6392381 L51.651383,10.6392381 L51.651383,5.51161905 L58.0738298,5.51161905 L58.0738298,10.6392381 L62.7411702,10.6392381 L62.7411702,15.4133333 L58.0738298,15.4133333" id="Fill-4"></path>
                    <path d="M72.9114681,4.41752381 C72.9114681,4.9127619 72.8120638,5.376 72.6132553,5.80571429 C72.4128936,6.23695238 72.1472979,6.6087619 71.8149149,6.92114286 C71.4809787,7.23352381 71.0833617,7.48342857 70.6189574,7.6647619 C70.153,7.84761905 69.6668511,7.93904762 69.1620638,7.93904762 C68.0996809,7.93904762 67.2065957,7.59314286 66.4905745,6.90133333 C65.773,6.21104762 65.4126596,5.38209524 65.4126596,4.41752381 C65.4126596,3.94666667 65.5058511,3.49714286 65.692234,3.06742857 C65.878617,2.63619048 66.1442128,2.26438095 66.4905745,1.952 C66.835383,1.63809524 67.2345532,1.38361905 67.6865319,1.18857143 C68.1385106,0.992 68.6293191,0.89447619 69.1620638,0.89447619 C69.6668511,0.89447619 70.153,0.985904762 70.6189574,1.1687619 C71.0833617,1.35161905 71.4809787,1.6 71.8149149,1.91238095 C72.1472979,2.2247619 72.4128936,2.59657143 72.6132553,3.02780952 C72.8120638,3.45752381 72.9114681,3.92228571 72.9114681,4.41752381 L72.9114681,4.41752381 Z M65.8925957,10.6392381 L72.4346383,10.6392381 L72.4346383,30.1272381 L65.8925957,30.1272381 L65.8925957,10.6392381 Z" id="Fill-5"></path>
                </g>
                <text id="consulting" sketch:type="MSTextLayer" font-family="Avenir Next Condensed" font-size="28" font-style="condensed" font-weight="normal" fill="#9B9B9B">
                    <tspan x="79" y="29">consulting</tspan>
                </text>
            </g>
        </g>
    </g>
</svg>